<svg xmlns="http://www.w3.org/2000/svg" viewBox="0 0 283.46 278.46"><defs><style>.cls-1,.cls-2{fill:none;stroke-linecap:round;stroke-linejoin:round;stroke-width:2.16px;}.cls-1{stroke:#a7a9ac;}.cls-2{stroke:#fff;}.cls-3{fill:#fff;}.cls-4{fill:#a7a9ac;}</style></defs><title>logo-w</title><g id="Capa_4" data-name="Capa 4"><circle cx="142.25" cy="114.73" r="112.73"/></g><g id="Capa_2" data-name="Capa 2"><polygon class="cls-1" points="75.11 129.35 162 48.35 188.74 164.09 75.11 129.35"/><polygon class="cls-1" points="242.35 91.36 162 48.35 71.29 39.25 75.11 129.35 111.69 212.94 188.74 164.09 242.35 91.36"/><polygon class="cls-2" points="212.13 190.24 111.53 213.45 41.11 137.96 71.29 39.25 171.88 16.04 242.3 91.53 212.13 190.24"/><polygon class="cls-2" points="208.44 99.67 121.55 180.68 94.81 64.93 208.44 99.67"/><polygon class="cls-2" points="41.21 137.62 121.55 180.68 212.23 189.9 208.44 99.67 171.88 16.04 94.81 64.93 41.21 137.62"/><path class="cls-2" d="M208.44,99.67c20.82-4.77,13.6-3.57,33.92-8.31"/><path class="cls-1" d="M41.21,137.62c33.64-7.77.13-.22,33.64-7.77"/><path class="cls-2" d="M95.24,64.53C80.58,49,85.66,54.37,71.29,39.25"/><path class="cls-2" d="M111.53,213.13c10.09-33-.13-.22,10.09-33"/><path class="cls-1" d="M161.7,49c10.09-33-.12-.22,10.09-33"/><line class="cls-1" x1="188.74" y1="164.1" x2="212.23" y2="189.9"/><circle class="cls-3" cx="71.83" cy="39.49" r="6.92"/><circle class="cls-3" cx="172.34" cy="16.28" r="6.92"/><circle class="cls-3" cx="242.85" cy="91.6" r="6.92"/><circle class="cls-3" cx="212.77" cy="190.14" r="6.92"/><circle class="cls-3" cx="112.08" cy="213.18" r="6.92"/><circle class="cls-3" cx="41.66" cy="137.86" r="6.92"/><circle class="cls-4" cx="162.25" cy="49.26" r="6.92"/><circle class="cls-3" cx="95.79" cy="64.77" r="6.92"/><circle class="cls-3" cx="208.99" cy="99.91" r="6.92"/><circle class="cls-3" cx="122.17" cy="180.36" r="6.92"/><circle class="cls-4" cx="75.4" cy="130.09" r="6.92"/><circle class="cls-4" cx="189.29" cy="162.77" r="6.92"/></g><g id="Capa_3" data-name="Capa 3"><path class="cls-3" d="M42.42,255.15,50.33,269H43l-11.2-19.35,5.74,0a6.51,6.51,0,0,0,6.42-6.46A6,6,0,0,0,42,238.74a6.1,6.1,0,0,0-4.49-1.88H24.61l-.73-.73-3.33-5.74H37.49a12.84,12.84,0,0,1,12.84,12.84,12.14,12.14,0,0,1-2.27,7.28A12.38,12.38,0,0,1,42.42,255.15Z"/><path class="cls-3" d="M93,230.39V269L60.91,240.14v-9.75l25.67,23.12V230.39Z"/><path class="cls-3" d="M133,258.19l6.42,2.12a17.74,17.74,0,0,1-3.09,3.57,19.25,19.25,0,0,1-3.81,2.75,16.17,16.17,0,0,1-4.4,1.74,17.37,17.37,0,0,1-4.82.63,19.25,19.25,0,0,1-13.61-32.92,18.25,18.25,0,0,1,13.61-5.69,18.82,18.82,0,0,1,7.53,1.5,20,20,0,0,1,6.17,4.19l-4.63,4.54a12.82,12.82,0,0,0-21.91,9.07,12.69,12.69,0,0,0,12.84,12.84,13.08,13.08,0,0,0,5.36-1.11A13.46,13.46,0,0,0,133,258.19Zm-9.7-11.68h16.12L133,252.93h-9.7Z"/><path class="cls-3" d="M156.29,230.39V253.8l-6.42,6.46V230.39Zm19.3,32.14V269H149.87l6.42-6.47Z"/><path class="cls-3" d="M196.06,262.53,192.78,269h-7.14l19.3-38.61,12.89,25.77h-7.24l-5.65-11.34-5.69,11.34ZM224.25,269h-7.19l-3.19-6.42H221Z"/><path class="cls-3" d="M259,249.69a10.73,10.73,0,0,1,3.38,8.06,10.9,10.9,0,0,1-.87,4.35,10.57,10.57,0,0,1-2.41,3.57,11.21,11.21,0,0,1-3.62,2.46,10.89,10.89,0,0,1-4.34.87H236.66v-6.47h14.48a4.75,4.75,0,0,0,1.83-.33,4.1,4.1,0,0,0,1.6-1.07,4.73,4.73,0,0,0,1-1.54,4.62,4.62,0,0,0,0-3.67,4.73,4.73,0,0,0-1-1.54,4.84,4.84,0,0,0-1.5-1.07,5.35,5.35,0,0,0-1.93-.38h-20.9v-6.42h20.9a4,4,0,0,0,1.83-.39,4.08,4.08,0,0,0,1.6-1.06,4.73,4.73,0,0,0,1-1.54,4.9,4.9,0,0,0,.38-1.89,4.84,4.84,0,0,0-.38-1.83,4.73,4.73,0,0,0-1-1.54,4.1,4.1,0,0,0-1.6-1.07,4.75,4.75,0,0,0-1.83-.33H236.66l-6.42-6.47h20.9a11.1,11.1,0,0,1,8,3.33,10.57,10.57,0,0,1,2.41,3.57,11.29,11.29,0,0,1-2.51,12.4Z"/></g></svg>